<svg width="174" height="40" viewBox="0 0 174 40" fill="none" xmlns="http://www.w3.org/2000/svg">
<path fill-rule="evenodd" clip-rule="evenodd" d="M31.1237 12.6432H16.0381C12.3897 12.6432 10.1016 15.2269 10.1016 18.8843V28.7522C10.1016 32.4097 12.3771 34.9932 16.0381 34.9932H31.1219C34.7847 34.9932 37.062 32.4097 37.062 28.7522V18.8843C37.062 15.2269 34.7847 12.6432 31.1237 12.6432Z" stroke="white" stroke-width="2.5" stroke-linecap="round" stroke-linejoin="round"/>
<path d="M16.0146 20.0805H31.1399" stroke="white" stroke-width="2.5" stroke-linecap="round" stroke-linejoin="round"/>
<path d="M30.5367 12.6394L27.8937 8.23425C26 5.11554 22.7245 4.06334 19.5807 5.95872L6.66609 13.7312C3.53474 15.6122 2.90416 19.0048 4.78512 22.1488L9.88751 30.5915C10.1253 31.0005 10.3884 31.368 10.6893 31.6977V31.7103" stroke="white" stroke-width="2.5" stroke-linecap="round" stroke-linejoin="round"/>
<path d="M56.9978 15.0919H65.6518V31H62.8838V17.7644H56.9978V31H54.2298V17.7644H51.6845V15.0919H54.2298V14.6146C54.2298 10.4149 56.5524 8.31501 61.1975 8.31501C62.1308 8.31501 63.2232 8.45289 64.4746 8.72863V11.2421C63.0747 11.0724 61.9823 10.9876 61.1975 10.9876C59.734 10.9876 58.6629 11.2633 57.9841 11.8148C57.3266 12.3663 56.9978 13.2996 56.9978 14.6146V15.0919ZM77.8143 14.6783C79.6809 14.6783 81.1762 15.2722 82.3004 16.46C83.4246 17.6266 83.9867 19.2174 83.9867 21.2324V31H81.2187V21.3915C81.2187 20.1188 80.8687 19.1219 80.1687 18.4008C79.4688 17.6796 78.5037 17.319 77.2734 17.319C75.8523 17.319 74.7281 17.7644 73.9009 18.6553C73.0737 19.5249 72.6601 20.8294 72.6601 22.5687V31H69.8921V15.0919H72.6601V17.3826C73.7631 15.5797 75.4811 14.6783 77.8143 14.6783ZM95.3277 31.4136C92.9309 31.4136 90.937 30.6182 89.3462 29.0274C87.7554 27.4154 86.96 25.4216 86.96 23.0459C86.96 20.6703 87.7554 18.6871 89.3462 17.0963C90.937 15.4843 92.9309 14.6783 95.3277 14.6783C96.8973 14.6783 98.3078 15.0601 99.5592 15.8236C100.811 16.566 101.744 17.5735 102.359 18.8462L100.036 20.1825C99.6335 19.334 99.0078 18.6553 98.1593 18.1462C97.3321 17.6372 96.3882 17.3826 95.3277 17.3826C93.7369 17.3826 92.4006 17.9235 91.3188 19.0053C90.2583 20.1082 89.728 21.4551 89.728 23.0459C89.728 24.6155 90.2583 25.9518 91.3188 27.0548C92.4006 28.1365 93.7369 28.6774 95.3277 28.6774C96.3882 28.6774 97.3427 28.4335 98.1911 27.9456C99.0396 27.4366 99.6865 26.7578 100.132 25.9094L102.486 27.2775C101.786 28.5501 100.8 29.5577 99.5274 30.3C98.2548 31.0424 96.8549 31.4136 95.3277 31.4136ZM113.142 14.6783C115.008 14.6783 116.503 15.2722 117.628 16.46C118.752 17.6266 119.314 19.2174 119.314 21.2324V31H116.546V21.3915C116.546 20.1188 116.196 19.1219 115.496 18.4008C114.796 17.6796 113.831 17.319 112.601 17.319C111.18 17.319 110.055 17.7644 109.228 18.6553C108.401 19.5249 107.987 20.8294 107.987 22.5687V31H105.219V8.72863H107.987V17.3826C109.09 15.5797 110.808 14.6783 113.142 14.6783ZM138.45 24.3186H125.119C125.395 25.7185 126.042 26.8215 127.06 27.6275C128.078 28.4123 129.35 28.8047 130.878 28.8047C132.977 28.8047 134.505 28.0305 135.459 26.4821L137.814 27.8184C136.244 30.2152 133.911 31.4136 130.814 31.4136C128.311 31.4136 126.254 30.6288 124.642 29.0592C123.072 27.4472 122.287 25.4428 122.287 23.0459C122.287 20.6279 123.061 18.6341 124.61 17.0645C126.158 15.4737 128.163 14.6783 130.623 14.6783C132.956 14.6783 134.855 15.5055 136.318 17.1599C137.803 18.772 138.545 20.7446 138.545 23.0778C138.545 23.4808 138.514 23.8944 138.45 24.3186ZM130.623 17.2872C129.16 17.2872 127.929 17.7008 126.932 18.528C125.957 19.3553 125.352 20.4794 125.119 21.9006H135.745C135.512 20.437 134.929 19.3022 133.996 18.4962C133.062 17.6902 131.938 17.2872 130.623 17.2872ZM149.173 31.4136C146.776 31.4136 144.782 30.6182 143.191 29.0274C141.601 27.4154 140.805 25.4216 140.805 23.0459C140.805 20.6703 141.601 18.6871 143.191 17.0963C144.782 15.4843 146.776 14.6783 149.173 14.6783C150.743 14.6783 152.153 15.0601 153.405 15.8236C154.656 16.566 155.589 17.5735 156.204 18.8462L153.882 20.1825C153.479 19.334 152.853 18.6553 152.005 18.1462C151.177 17.6372 150.233 17.3826 149.173 17.3826C147.582 17.3826 146.246 17.9235 145.164 19.0053C144.104 20.1082 143.573 21.4551 143.573 23.0459C143.573 24.6155 144.104 25.9518 145.164 27.0548C146.246 28.1365 147.582 28.6774 149.173 28.6774C150.233 28.6774 151.188 28.4335 152.036 27.9456C152.885 27.4366 153.532 26.7578 153.977 25.9094L156.332 27.2775C155.632 28.5501 154.645 29.5577 153.373 30.3C152.1 31.0424 150.7 31.4136 149.173 31.4136ZM164.664 22.7914L172.523 31H169.087L161.833 23.4595V31H159.065V8.72863H161.833V22.1233L168.705 15.0919H172.268L164.664 22.7914Z" fill="white"/>
</svg>
