<svg width="41" height="41" viewBox="0 0 41 41" fill="none" xmlns="http://www.w3.org/2000/svg">
<path fill-rule="evenodd" clip-rule="evenodd" d="M30.7646 13.1348H15.6614C12.0087 13.1348 9.7179 15.7214 9.7179 19.3831V29.2625C9.7179 32.9243 11.9961 35.5108 15.6614 35.5108H30.7627C34.4298 35.5108 36.7098 32.9243 36.7098 29.2625V19.3831C36.7098 15.7214 34.4298 13.1348 30.7646 13.1348Z" stroke="#38D9A9" stroke-width="2.50292" stroke-linecap="round" stroke-linejoin="round"/>
<path d="M15.6379 20.5806H30.7808" stroke="#38D9A9" stroke-width="2.50292" stroke-linecap="round" stroke-linejoin="round"/>
<path d="M30.1772 13.1308L27.5311 8.72049C25.6353 5.59813 22.3559 4.5447 19.2084 6.4423L6.27877 14.2239C3.14377 16.107 2.51245 19.5036 4.39561 22.6513L9.50395 31.1038C9.74206 31.5133 10.0054 31.8812 10.3066 32.2113V32.224" stroke="#38D9A9" stroke-width="2.50292" stroke-linecap="round" stroke-linejoin="round"/>
</svg>
